<?xml version="1.0" encoding="iso-8859-1"?>
<!-- Uploaded to: SVG Repo, www.svgrepo.com, Generator: SVG Repo Mixer Tools -->
<!DOCTYPE svg PUBLIC "-//W3C//DTD SVG 1.1//EN" "http://www.w3.org/Graphics/SVG/1.1/DTD/svg11.dtd">
<svg fill="#000000" version="1.1" id="Capa_1" xmlns="http://www.w3.org/2000/svg" xmlns:xlink="http://www.w3.org/1999/xlink" 
	 width="800px" height="800px" viewBox="0 0 409.562 409.562"
	 xml:space="preserve">
<g>
	<path d="M379.377,58.308c-21.385-32.213-48.703-49.953-76.922-49.953c-28.221,0-55.539,17.74-76.922,49.953
		c-8.621,12.986-18.729,42.498-20.754,42.498c-2.143,0-12.135-29.512-20.756-42.498C162.64,26.095,135.324,8.355,107.101,8.355
		c-28.221,0-55.539,17.74-76.92,49.953C11.283,86.777,0,122.683,0,154.355c0,29.104,9.68,48.021,29.596,57.834
		c18.354,9.041,42.924,9.055,70.787,8.996c4.443-0.008,9-0.008,13.438,0c2.193,0.006,4.367,0.01,6.52,0.01
		c25.158,0,47.359-0.678,64.266-9.008c8.635-4.252,17.281-17.982,20.172-17.982c2.859,0,11.539,13.73,20.172,17.984
		c18.35,9.041,42.926,9.055,70.787,8.996c4.443-0.008,8.998-0.008,13.438,0c2.193,0.006,4.367,0.01,6.52,0.01
		c25.156,0,47.357-0.678,64.268-9.008c19.918-9.813,29.6-28.73,29.6-57.832C409.559,122.683,398.275,86.777,379.377,58.308z
		 M120.34,202.339c-2.137,0-4.299-0.006-6.479-0.01c-2.232-0.004-4.486-0.01-6.76-0.01c-2.27,0-4.525,0.006-6.76,0.01
		c-2.18,0.004-4.342,0.01-6.477,0.01c-52.154,0-75.012-4.539-75.012-47.984c0-28.109,10.107-60.117,27.037-85.619
		C63.407,42.345,85.717,27.209,107.1,27.209c21.385,0,43.695,15.137,61.213,41.527c9.682,14.583,17.126,31.293,21.729,48.184
		c0.277,1.019,0.926,3.058-1.24,3.058h-30c0,0-2.392-0.201-2.392-3.534c0-1.292,0-5.171,0-5.171c0-7.273-5.916-13.188-13.188-13.188
		H82.925c-7.271,0-13.188,5.914-13.188,13.188v37.297c0,7.271,5.916,13.188,13.188,13.188h60.297
		c7.271,0,13.188-5.916,13.188-13.188c0,0,0-5.344,0-7.126c0-2.542,2.892-2.61,2.892-2.61h33.335c1.75,0,1.876,1.134,1.938,1.7
		c0.51,4.679,0.775,9.3,0.775,13.821C195.35,197.8,172.494,202.339,120.34,202.339z M315.693,202.339
		c-2.139,0-4.301-0.006-6.479-0.01c-2.232-0.004-4.486-0.01-6.758-0.01c-2.273,0-4.527,0.006-6.762,0.01
		c-2.182,0.004-4.342,0.01-6.479,0.01c-52.154,0-75.01-4.539-75.01-47.984c0-4.682,0.283-9.471,0.83-14.321
		c0.045-0.4,0.268-1.201,1.518-1.201h33.082c0,0,3.508,0.277,3.508,3.11c0,1.657,0,6.626,0,6.626
		c0,7.271,5.916,13.188,13.189,13.188h60.299c7.27,0,13.186-5.916,13.186-13.188v-37.297c0-7.273-5.914-13.188-13.186-13.188
		h-60.299c-7.271,0-13.189,5.914-13.189,13.188c0,0,0,4.378,0,5.838c0,2.833-2.84,2.867-2.84,2.867h-29.918
		c-1.375,0-1.361-1.23-1.199-1.846c4.574-17.303,12.145-34.464,22.057-49.396c17.518-26.391,39.828-41.527,61.213-41.527
		c21.383,0,43.691,15.137,61.211,41.527c16.93,25.502,27.037,57.51,27.037,85.619C390.703,197.8,367.846,202.339,315.693,202.339z"
		/>
	<path d="M340.207,240.599c-14.529-7.158-33.621-7.176-55.307-7.131c-3.406,0.008-6.902,0.008-10.305,0
		c-21.654-0.047-40.771-0.027-55.304,7.133c-5.969,2.941-12.155,11.848-14.514,11.848c-2.393,0-8.545-8.908-14.514-11.85
		c-14.529-7.158-33.625-7.178-55.305-7.131c-3.41,0.008-6.904,0.008-10.307,0c-21.654-0.047-40.771-0.027-55.303,7.133
		c-16.109,7.938-23.941,23.1-23.941,46.354c0,24.724,8.797,52.734,23.531,74.933c16.832,25.356,38.447,39.319,60.865,39.319
		c22.42,0,44.037-13.963,60.869-39.319c5.619-8.468,11.711-27.438,14.102-27.438c2.109,0,8.484,18.971,14.105,27.438
		c16.832,25.356,38.447,39.319,60.865,39.319s44.033-13.963,60.867-39.319c14.732-22.197,23.529-50.209,23.529-74.933
		C364.146,263.698,356.316,248.536,340.207,240.599z M193.012,296.675h-20.375c0,0-2.924,0.227-2.924-2.648c0-0.539,0-2.157,0-2.157
		c0-6.715-5.463-12.18-12.18-12.18h-46.281c-6.715,0-12.18,5.465-12.18,12.18v28.628c0,6.717,5.465,12.18,12.18,12.18h46.281
		c6.717,0,12.18-5.463,12.18-12.18c0,0,0-2.041,0-2.721c0-2.167,2.549-2.245,2.549-2.245h17.375c1.5,0,1.248,1.093,1.089,1.64
		c-9.867,33.674-34.263,65.182-60.919,65.182c-34.682,0-65.541-53.346-65.541-95.396c0-31.508,16.027-34.641,55.379-34.641
		c1.641,0,3.297,0.004,4.969,0.008c3.432,0.008,6.953,0.008,10.387,0c1.674-0.004,3.33-0.008,4.969-0.008
		c39.355,0,55.383,3.133,55.383,34.641c0,2.291-0.093,4.614-0.272,6.961C195.009,294.833,195.137,296.675,193.012,296.675z
		 M279.748,382.353c-26.711,0-51.152-31.643-60.979-65.396c-0.139-0.474-0.215-1.424,1.201-1.424h17.584
		c0,0,2.289-0.505,2.289,1.995c0,0.743,0,2.97,0,2.97c0,6.717,5.465,12.18,12.18,12.18h46.281c6.715,0,12.18-5.463,12.18-12.18
		v-28.627c0-6.715-5.465-12.18-12.18-12.18h-46.281c-6.715,0-12.18,5.465-12.18,12.18c0,0,0,1.68,0,2.24
		c0,2.333-2.539,2.564-2.539,2.564h-20.418c-2.375,0-2.301-1.442-2.358-2.16c-0.211-2.551-0.32-5.075-0.32-7.56
		c0-31.508,16.025-34.641,55.382-34.641c1.639,0,3.295,0.004,4.967,0.008c3.432,0.008,6.953,0.008,10.387,0
		c1.672-0.004,3.33-0.008,4.969-0.008c39.354,0,55.383,3.133,55.383,34.641C345.293,329.007,314.432,382.353,279.748,382.353z"/>
</g>
</svg>